<mxfile host="Electron" modified="2024-02-23T06:33:13.274Z" agent="Mozilla/5.0 (Macintosh; Intel Mac OS X 10_15_7) AppleWebKit/537.36 (KHTML, like Gecko) draw.io/21.6.8 Chrome/114.0.5735.289 Electron/25.5.0 Safari/537.36" etag="GxbcE6wCWx_M8T5Yn3zv" version="21.6.8" type="device">
  <diagram name="Page-1" id="bHb9pw4INFyl-OV4UC9b">
    <mxGraphModel dx="1194" dy="824" grid="1" gridSize="10" guides="1" tooltips="1" connect="1" arrows="1" fold="1" page="1" pageScale="1" pageWidth="850" pageHeight="1100" math="1" shadow="0">
      <root>
        <mxCell id="0" />
        <mxCell id="1" parent="0" />
        <mxCell id="e-ZmnsdkXUoJuJWoM4DM-29" value="" style="rounded=1;whiteSpace=wrap;html=1;fillColor=#eeeeee;strokeColor=#36393d;" vertex="1" parent="1">
          <mxGeometry x="100" y="650" width="510" height="230" as="geometry" />
        </mxCell>
        <mxCell id="e-ZmnsdkXUoJuJWoM4DM-30" value="" style="rounded=0;whiteSpace=wrap;html=1;fillColor=#fff2cc;strokeColor=#d6b656;" vertex="1" parent="1">
          <mxGeometry x="290" y="660" width="240" height="210" as="geometry" />
        </mxCell>
        <mxCell id="e-ZmnsdkXUoJuJWoM4DM-31" value="" style="edgeStyle=orthogonalEdgeStyle;rounded=0;orthogonalLoop=1;jettySize=auto;html=1;" edge="1" parent="1" source="e-ZmnsdkXUoJuJWoM4DM-32" target="e-ZmnsdkXUoJuJWoM4DM-39">
          <mxGeometry relative="1" as="geometry" />
        </mxCell>
        <mxCell id="e-ZmnsdkXUoJuJWoM4DM-32" value="GAT" style="rounded=0;whiteSpace=wrap;html=1;fillColor=#dae8fc;strokeColor=#6c8ebf;" vertex="1" parent="1">
          <mxGeometry x="330" y="750" width="40" height="80" as="geometry" />
        </mxCell>
        <mxCell id="e-ZmnsdkXUoJuJWoM4DM-33" value="" style="edgeStyle=orthogonalEdgeStyle;rounded=0;orthogonalLoop=1;jettySize=auto;html=1;" edge="1" parent="1" source="e-ZmnsdkXUoJuJWoM4DM-34" target="e-ZmnsdkXUoJuJWoM4DM-40">
          <mxGeometry relative="1" as="geometry" />
        </mxCell>
        <mxCell id="e-ZmnsdkXUoJuJWoM4DM-34" value="relu" style="ellipse;whiteSpace=wrap;html=1;fillColor=#f8cecc;strokeColor=#b85450;" vertex="1" parent="1">
          <mxGeometry x="470" y="750" width="40" height="80" as="geometry" />
        </mxCell>
        <mxCell id="e-ZmnsdkXUoJuJWoM4DM-35" value="" style="edgeStyle=orthogonalEdgeStyle;rounded=0;orthogonalLoop=1;jettySize=auto;html=1;" edge="1" parent="1" source="e-ZmnsdkXUoJuJWoM4DM-36" target="e-ZmnsdkXUoJuJWoM4DM-46">
          <mxGeometry relative="1" as="geometry" />
        </mxCell>
        <mxCell id="e-ZmnsdkXUoJuJWoM4DM-36" value="GCN" style="rounded=0;whiteSpace=wrap;html=1;fillColor=#dae8fc;strokeColor=#6c8ebf;" vertex="1" parent="1">
          <mxGeometry x="120" y="750" width="40" height="80" as="geometry" />
        </mxCell>
        <mxCell id="e-ZmnsdkXUoJuJWoM4DM-37" value="`\hat{A}`" style="text;html=1;strokeColor=#9673a6;fillColor=#e1d5e7;align=center;verticalAlign=middle;whiteSpace=wrap;rounded=0;" vertex="1" parent="1">
          <mxGeometry x="337.5" y="690" width="25" height="30" as="geometry" />
        </mxCell>
        <mxCell id="e-ZmnsdkXUoJuJWoM4DM-38" value="" style="edgeStyle=orthogonalEdgeStyle;rounded=0;orthogonalLoop=1;jettySize=auto;html=1;" edge="1" parent="1" source="e-ZmnsdkXUoJuJWoM4DM-39" target="e-ZmnsdkXUoJuJWoM4DM-34">
          <mxGeometry relative="1" as="geometry" />
        </mxCell>
        <mxCell id="e-ZmnsdkXUoJuJWoM4DM-39" value="BN" style="rounded=1;whiteSpace=wrap;html=1;fillColor=#d5e8d4;strokeColor=#82b366;" vertex="1" parent="1">
          <mxGeometry x="410" y="750" width="40" height="80" as="geometry" />
        </mxCell>
        <mxCell id="e-ZmnsdkXUoJuJWoM4DM-40" value="GCN" style="rounded=0;whiteSpace=wrap;html=1;fillColor=#dae8fc;strokeColor=#6c8ebf;" vertex="1" parent="1">
          <mxGeometry x="550" y="750" width="40" height="80" as="geometry" />
        </mxCell>
        <mxCell id="e-ZmnsdkXUoJuJWoM4DM-41" value="" style="endArrow=classic;html=1;rounded=0;entryX=0;entryY=0.5;entryDx=0;entryDy=0;" edge="1" parent="1" target="e-ZmnsdkXUoJuJWoM4DM-37">
          <mxGeometry width="50" height="50" relative="1" as="geometry">
            <mxPoint x="310" y="790" as="sourcePoint" />
            <mxPoint x="460" y="830" as="targetPoint" />
            <Array as="points">
              <mxPoint x="310" y="705" />
            </Array>
          </mxGeometry>
        </mxCell>
        <mxCell id="e-ZmnsdkXUoJuJWoM4DM-42" value="" style="endArrow=classic;html=1;rounded=0;exitX=1;exitY=0.5;exitDx=0;exitDy=0;" edge="1" parent="1" source="e-ZmnsdkXUoJuJWoM4DM-37">
          <mxGeometry width="50" height="50" relative="1" as="geometry">
            <mxPoint x="410" y="880" as="sourcePoint" />
            <mxPoint x="390" y="790" as="targetPoint" />
            <Array as="points">
              <mxPoint x="390" y="705" />
            </Array>
          </mxGeometry>
        </mxCell>
        <mxCell id="e-ZmnsdkXUoJuJWoM4DM-43" value="" style="edgeStyle=orthogonalEdgeStyle;rounded=0;orthogonalLoop=1;jettySize=auto;html=1;" edge="1" parent="1" source="e-ZmnsdkXUoJuJWoM4DM-44" target="e-ZmnsdkXUoJuJWoM4DM-32">
          <mxGeometry relative="1" as="geometry" />
        </mxCell>
        <mxCell id="e-ZmnsdkXUoJuJWoM4DM-44" value="relu" style="ellipse;whiteSpace=wrap;html=1;fillColor=#f8cecc;strokeColor=#b85450;" vertex="1" parent="1">
          <mxGeometry x="240" y="750" width="40" height="80" as="geometry" />
        </mxCell>
        <mxCell id="e-ZmnsdkXUoJuJWoM4DM-45" value="" style="edgeStyle=orthogonalEdgeStyle;rounded=0;orthogonalLoop=1;jettySize=auto;html=1;" edge="1" parent="1" source="e-ZmnsdkXUoJuJWoM4DM-46" target="e-ZmnsdkXUoJuJWoM4DM-44">
          <mxGeometry relative="1" as="geometry" />
        </mxCell>
        <mxCell id="e-ZmnsdkXUoJuJWoM4DM-46" value="BN" style="rounded=1;whiteSpace=wrap;html=1;fillColor=#d5e8d4;strokeColor=#82b366;" vertex="1" parent="1">
          <mxGeometry x="180" y="750" width="40" height="80" as="geometry" />
        </mxCell>
        <mxCell id="e-ZmnsdkXUoJuJWoM4DM-47" value="`L_1 \times`" style="text;html=1;strokeColor=none;fillColor=none;align=center;verticalAlign=middle;whiteSpace=wrap;rounded=0;" vertex="1" parent="1">
          <mxGeometry x="300" y="660" width="30" height="30" as="geometry" />
        </mxCell>
        <mxCell id="e-ZmnsdkXUoJuJWoM4DM-48" value="" style="shape=flexArrow;endArrow=classic;html=1;rounded=0;" edge="1" parent="1">
          <mxGeometry width="50" height="50" relative="1" as="geometry">
            <mxPoint x="40" y="789.5" as="sourcePoint" />
            <mxPoint x="100" y="789.5" as="targetPoint" />
          </mxGeometry>
        </mxCell>
        <mxCell id="e-ZmnsdkXUoJuJWoM4DM-49" value="" style="shape=flexArrow;endArrow=classic;html=1;rounded=0;exitX=1.003;exitY=0.609;exitDx=0;exitDy=0;exitPerimeter=0;" edge="1" parent="1">
          <mxGeometry width="50" height="50" relative="1" as="geometry">
            <mxPoint x="610" y="790.0699999999999" as="sourcePoint" />
            <mxPoint x="668.1400000000001" y="789.5" as="targetPoint" />
          </mxGeometry>
        </mxCell>
        <mxCell id="e-ZmnsdkXUoJuJWoM4DM-50" value="&lt;font style=&quot;font-size: 18px;&quot;&gt;输入&lt;/font&gt;" style="text;html=1;align=center;verticalAlign=middle;resizable=0;points=[];autosize=1;strokeColor=none;fillColor=none;" vertex="1" parent="1">
          <mxGeometry x="40" y="740" width="60" height="40" as="geometry" />
        </mxCell>
        <mxCell id="e-ZmnsdkXUoJuJWoM4DM-51" value="&lt;font style=&quot;font-size: 18px;&quot;&gt;输出&lt;/font&gt;" style="text;html=1;align=center;verticalAlign=middle;resizable=0;points=[];autosize=1;strokeColor=none;fillColor=none;" vertex="1" parent="1">
          <mxGeometry x="610" y="740" width="60" height="40" as="geometry" />
        </mxCell>
        <mxCell id="e-ZmnsdkXUoJuJWoM4DM-52" value="" style="rounded=1;whiteSpace=wrap;html=1;fillColor=#d0cee2;strokeColor=#56517e;" vertex="1" parent="1">
          <mxGeometry x="780" y="660" width="310" height="160" as="geometry" />
        </mxCell>
        <mxCell id="e-ZmnsdkXUoJuJWoM4DM-53" value="" style="rounded=0;whiteSpace=wrap;html=1;fillColor=#fff2cc;strokeColor=#d6b656;" vertex="1" parent="1">
          <mxGeometry x="800" y="670" width="210" height="140" as="geometry" />
        </mxCell>
        <mxCell id="e-ZmnsdkXUoJuJWoM4DM-54" value="" style="edgeStyle=orthogonalEdgeStyle;rounded=0;orthogonalLoop=1;jettySize=auto;html=1;" edge="1" parent="1" source="e-ZmnsdkXUoJuJWoM4DM-55" target="e-ZmnsdkXUoJuJWoM4DM-59">
          <mxGeometry relative="1" as="geometry" />
        </mxCell>
        <mxCell id="e-ZmnsdkXUoJuJWoM4DM-55" value="Linear" style="rounded=0;whiteSpace=wrap;html=1;fillColor=#dae8fc;strokeColor=#6c8ebf;" vertex="1" parent="1">
          <mxGeometry x="820" y="710" width="40" height="80" as="geometry" />
        </mxCell>
        <mxCell id="e-ZmnsdkXUoJuJWoM4DM-56" value="" style="edgeStyle=orthogonalEdgeStyle;rounded=0;orthogonalLoop=1;jettySize=auto;html=1;" edge="1" parent="1" source="e-ZmnsdkXUoJuJWoM4DM-57" target="e-ZmnsdkXUoJuJWoM4DM-60">
          <mxGeometry relative="1" as="geometry" />
        </mxCell>
        <mxCell id="e-ZmnsdkXUoJuJWoM4DM-57" value="relu" style="ellipse;whiteSpace=wrap;html=1;fillColor=#f8cecc;strokeColor=#b85450;" vertex="1" parent="1">
          <mxGeometry x="950" y="710" width="40" height="80" as="geometry" />
        </mxCell>
        <mxCell id="e-ZmnsdkXUoJuJWoM4DM-58" value="" style="edgeStyle=orthogonalEdgeStyle;rounded=0;orthogonalLoop=1;jettySize=auto;html=1;" edge="1" parent="1" source="e-ZmnsdkXUoJuJWoM4DM-59" target="e-ZmnsdkXUoJuJWoM4DM-57">
          <mxGeometry relative="1" as="geometry" />
        </mxCell>
        <mxCell id="e-ZmnsdkXUoJuJWoM4DM-59" value="BN" style="rounded=1;whiteSpace=wrap;html=1;fillColor=#d5e8d4;strokeColor=#82b366;" vertex="1" parent="1">
          <mxGeometry x="885" y="710" width="40" height="80" as="geometry" />
        </mxCell>
        <mxCell id="e-ZmnsdkXUoJuJWoM4DM-60" value="Linear" style="rounded=0;whiteSpace=wrap;html=1;fillColor=#dae8fc;strokeColor=#6c8ebf;" vertex="1" parent="1">
          <mxGeometry x="1030" y="710" width="40" height="80" as="geometry" />
        </mxCell>
        <mxCell id="e-ZmnsdkXUoJuJWoM4DM-61" value="`L_2 \times`" style="text;html=1;strokeColor=none;fillColor=none;align=center;verticalAlign=middle;whiteSpace=wrap;rounded=0;" vertex="1" parent="1">
          <mxGeometry x="810" y="670" width="30" height="30" as="geometry" />
        </mxCell>
        <mxCell id="e-ZmnsdkXUoJuJWoM4DM-62" value="" style="endArrow=classic;html=1;rounded=0;exitX=1;exitY=0.5;exitDx=0;exitDy=0;entryX=1;entryY=0.5;entryDx=0;entryDy=0;" edge="1" parent="1" source="e-ZmnsdkXUoJuJWoM4DM-60">
          <mxGeometry width="50" height="50" relative="1" as="geometry">
            <mxPoint x="600" y="750" as="sourcePoint" />
            <mxPoint x="1090" y="750" as="targetPoint" />
          </mxGeometry>
        </mxCell>
        <mxCell id="e-ZmnsdkXUoJuJWoM4DM-63" value="" style="endArrow=classic;html=1;rounded=0;entryX=0;entryY=0.5;entryDx=0;entryDy=0;" edge="1" parent="1" target="e-ZmnsdkXUoJuJWoM4DM-55">
          <mxGeometry width="50" height="50" relative="1" as="geometry">
            <mxPoint x="780" y="750" as="sourcePoint" />
            <mxPoint x="650" y="700" as="targetPoint" />
          </mxGeometry>
        </mxCell>
        <mxCell id="e-ZmnsdkXUoJuJWoM4DM-64" value="" style="shape=flexArrow;endArrow=classic;html=1;rounded=0;width=8;endSize=4.38;endWidth=16;" edge="1" parent="1">
          <mxGeometry width="50" height="50" relative="1" as="geometry">
            <mxPoint x="1090" y="749.5" as="sourcePoint" />
            <mxPoint x="1130" y="750" as="targetPoint" />
          </mxGeometry>
        </mxCell>
        <mxCell id="e-ZmnsdkXUoJuJWoM4DM-65" value="&lt;font style=&quot;font-size: 14px;&quot;&gt;输入&lt;/font&gt;" style="text;html=1;align=center;verticalAlign=middle;resizable=0;points=[];autosize=1;strokeColor=none;fillColor=none;" vertex="1" parent="1">
          <mxGeometry x="730" y="710" width="50" height="30" as="geometry" />
        </mxCell>
        <mxCell id="e-ZmnsdkXUoJuJWoM4DM-66" value="&lt;font style=&quot;font-size: 14px;&quot;&gt;输出&lt;/font&gt;" style="text;html=1;align=center;verticalAlign=middle;resizable=0;points=[];autosize=1;strokeColor=none;fillColor=none;" vertex="1" parent="1">
          <mxGeometry x="1090" y="710" width="50" height="30" as="geometry" />
        </mxCell>
        <mxCell id="e-ZmnsdkXUoJuJWoM4DM-67" value="" style="shape=flexArrow;endArrow=classic;html=1;rounded=0;width=8;endSize=4.38;endWidth=16;" edge="1" parent="1">
          <mxGeometry width="50" height="50" relative="1" as="geometry">
            <mxPoint x="740" y="749.5" as="sourcePoint" />
            <mxPoint x="780" y="750" as="targetPoint" />
          </mxGeometry>
        </mxCell>
        <mxCell id="e-ZmnsdkXUoJuJWoM4DM-68" value="" style="rounded=1;whiteSpace=wrap;html=1;fillColor=#b0e3e6;strokeColor=#0e8088;" vertex="1" parent="1">
          <mxGeometry x="440" y="100" width="310" height="110" as="geometry" />
        </mxCell>
        <mxCell id="e-ZmnsdkXUoJuJWoM4DM-69" value="" style="edgeStyle=orthogonalEdgeStyle;rounded=0;orthogonalLoop=1;jettySize=auto;html=1;" edge="1" parent="1" source="e-ZmnsdkXUoJuJWoM4DM-70" target="e-ZmnsdkXUoJuJWoM4DM-74">
          <mxGeometry relative="1" as="geometry" />
        </mxCell>
        <mxCell id="e-ZmnsdkXUoJuJWoM4DM-70" value="Linear" style="rounded=0;whiteSpace=wrap;html=1;fillColor=#dae8fc;strokeColor=#6c8ebf;" vertex="1" parent="1">
          <mxGeometry x="470" y="115" width="40" height="80" as="geometry" />
        </mxCell>
        <mxCell id="e-ZmnsdkXUoJuJWoM4DM-71" value="" style="edgeStyle=orthogonalEdgeStyle;rounded=0;orthogonalLoop=1;jettySize=auto;html=1;" edge="1" parent="1" source="e-ZmnsdkXUoJuJWoM4DM-72" target="e-ZmnsdkXUoJuJWoM4DM-75">
          <mxGeometry relative="1" as="geometry" />
        </mxCell>
        <mxCell id="e-ZmnsdkXUoJuJWoM4DM-72" value="gelu" style="ellipse;whiteSpace=wrap;html=1;fillColor=#f8cecc;strokeColor=#b85450;" vertex="1" parent="1">
          <mxGeometry x="610" y="115" width="40" height="80" as="geometry" />
        </mxCell>
        <mxCell id="e-ZmnsdkXUoJuJWoM4DM-73" value="" style="edgeStyle=orthogonalEdgeStyle;rounded=0;orthogonalLoop=1;jettySize=auto;html=1;" edge="1" parent="1" source="e-ZmnsdkXUoJuJWoM4DM-74" target="e-ZmnsdkXUoJuJWoM4DM-72">
          <mxGeometry relative="1" as="geometry" />
        </mxCell>
        <mxCell id="e-ZmnsdkXUoJuJWoM4DM-74" value="LN" style="rounded=1;whiteSpace=wrap;html=1;fillColor=#d5e8d4;strokeColor=#82b366;" vertex="1" parent="1">
          <mxGeometry x="540" y="115" width="40" height="80" as="geometry" />
        </mxCell>
        <mxCell id="e-ZmnsdkXUoJuJWoM4DM-75" value="Linear" style="rounded=0;whiteSpace=wrap;html=1;fillColor=#dae8fc;strokeColor=#6c8ebf;" vertex="1" parent="1">
          <mxGeometry x="680" y="115" width="40" height="80" as="geometry" />
        </mxCell>
        <mxCell id="e-ZmnsdkXUoJuJWoM4DM-76" value="" style="endArrow=classic;html=1;rounded=0;entryX=0;entryY=0.5;entryDx=0;entryDy=0;" edge="1" parent="1" target="e-ZmnsdkXUoJuJWoM4DM-70">
          <mxGeometry width="50" height="50" relative="1" as="geometry">
            <mxPoint x="440" y="155" as="sourcePoint" />
            <mxPoint x="370" y="395" as="targetPoint" />
          </mxGeometry>
        </mxCell>
        <mxCell id="e-ZmnsdkXUoJuJWoM4DM-77" value="" style="endArrow=classic;html=1;rounded=0;exitX=1;exitY=0.5;exitDx=0;exitDy=0;entryX=1;entryY=0.5;entryDx=0;entryDy=0;" edge="1" parent="1" source="e-ZmnsdkXUoJuJWoM4DM-75" target="e-ZmnsdkXUoJuJWoM4DM-68">
          <mxGeometry width="50" height="50" relative="1" as="geometry">
            <mxPoint x="320" y="445" as="sourcePoint" />
            <mxPoint x="370" y="395" as="targetPoint" />
          </mxGeometry>
        </mxCell>
        <mxCell id="e-ZmnsdkXUoJuJWoM4DM-78" value="" style="shape=flexArrow;endArrow=classic;html=1;rounded=0;width=7;endSize=5.02;endWidth=17;exitX=1;exitY=0.5;exitDx=0;exitDy=0;" edge="1" parent="1" source="e-ZmnsdkXUoJuJWoM4DM-68">
          <mxGeometry width="50" height="50" relative="1" as="geometry">
            <mxPoint x="750" y="154.5" as="sourcePoint" />
            <mxPoint x="790" y="155" as="targetPoint" />
          </mxGeometry>
        </mxCell>
        <mxCell id="e-ZmnsdkXUoJuJWoM4DM-79" value="&lt;font style=&quot;font-size: 12px;&quot;&gt;输入&lt;/font&gt;" style="text;html=1;align=center;verticalAlign=middle;resizable=0;points=[];autosize=1;strokeColor=none;fillColor=none;" vertex="1" parent="1">
          <mxGeometry x="390" y="115" width="50" height="30" as="geometry" />
        </mxCell>
        <mxCell id="e-ZmnsdkXUoJuJWoM4DM-80" value="&lt;font style=&quot;font-size: 12px;&quot;&gt;输出&lt;/font&gt;" style="text;html=1;align=center;verticalAlign=middle;resizable=0;points=[];autosize=1;strokeColor=none;fillColor=none;" vertex="1" parent="1">
          <mxGeometry x="750" y="115" width="50" height="30" as="geometry" />
        </mxCell>
        <mxCell id="e-ZmnsdkXUoJuJWoM4DM-81" value="" style="shape=flexArrow;endArrow=classic;html=1;rounded=0;width=7;endSize=5.02;endWidth=17;exitX=1;exitY=0.5;exitDx=0;exitDy=0;" edge="1" parent="1">
          <mxGeometry width="50" height="50" relative="1" as="geometry">
            <mxPoint x="400" y="154.5" as="sourcePoint" />
            <mxPoint x="440" y="154.5" as="targetPoint" />
          </mxGeometry>
        </mxCell>
        <mxCell id="e-ZmnsdkXUoJuJWoM4DM-82" value="" style="verticalLabelPosition=bottom;verticalAlign=top;html=1;shape=process;whiteSpace=wrap;rounded=1;size=0.14;arcSize=6;" vertex="1" parent="1">
          <mxGeometry x="100" y="230" width="630" height="370" as="geometry" />
        </mxCell>
        <mxCell id="e-ZmnsdkXUoJuJWoM4DM-83" value="" style="edgeStyle=orthogonalEdgeStyle;rounded=0;orthogonalLoop=1;jettySize=auto;html=1;fillColor=#dae8fc;strokeColor=#6c8ebf;strokeWidth=4;entryX=0;entryY=0.5;entryDx=0;entryDy=0;" edge="1" parent="1" source="e-ZmnsdkXUoJuJWoM4DM-85" target="e-ZmnsdkXUoJuJWoM4DM-86">
          <mxGeometry relative="1" as="geometry">
            <mxPoint x="410" y="200" as="targetPoint" />
            <Array as="points" />
          </mxGeometry>
        </mxCell>
        <mxCell id="e-ZmnsdkXUoJuJWoM4DM-84" style="edgeStyle=orthogonalEdgeStyle;rounded=0;orthogonalLoop=1;jettySize=auto;html=1;entryX=0;entryY=0.5;entryDx=0;entryDy=0;strokeWidth=5;fillColor=#d5e8d4;strokeColor=#82b366;" edge="1" parent="1" source="e-ZmnsdkXUoJuJWoM4DM-85" target="e-ZmnsdkXUoJuJWoM4DM-87">
          <mxGeometry relative="1" as="geometry" />
        </mxCell>
        <mxCell id="e-ZmnsdkXUoJuJWoM4DM-85" value="&lt;span style=&quot;font-size: 14px;&quot;&gt;嵌入层&lt;/span&gt;" style="verticalLabelPosition=bottom;verticalAlign=top;html=1;shape=process;whiteSpace=wrap;rounded=1;size=0.14;arcSize=6;fillColor=#eeeeee;strokeColor=#36393d;" vertex="1" parent="1">
          <mxGeometry x="200" y="360" width="180" height="110" as="geometry" />
        </mxCell>
        <mxCell id="e-ZmnsdkXUoJuJWoM4DM-86" value="&lt;font style=&quot;font-size: 14px;&quot;&gt;排序层&lt;/font&gt;" style="verticalLabelPosition=bottom;verticalAlign=top;html=1;shape=process;whiteSpace=wrap;rounded=1;size=0.14;arcSize=6;fillColor=#b0e3e6;strokeColor=#0e8088;" vertex="1" parent="1">
          <mxGeometry x="430" y="270" width="200" height="110" as="geometry" />
        </mxCell>
        <mxCell id="e-ZmnsdkXUoJuJWoM4DM-87" value="&lt;span style=&quot;font-size: 14px;&quot;&gt;评估层&lt;/span&gt;" style="verticalLabelPosition=bottom;verticalAlign=top;html=1;shape=process;whiteSpace=wrap;rounded=1;size=0.14;arcSize=6;fillColor=#d0cee2;strokeColor=#56517e;" vertex="1" parent="1">
          <mxGeometry x="430" y="460" width="200" height="105" as="geometry" />
        </mxCell>
        <mxCell id="e-ZmnsdkXUoJuJWoM4DM-88" value="" style="endArrow=classic;html=1;rounded=0;entryX=0;entryY=0.5;entryDx=0;entryDy=0;fillColor=#ffe6cc;strokeColor=#d79b00;strokeWidth=4;exitX=0;exitY=0.5;exitDx=0;exitDy=0;" edge="1" parent="1" source="e-ZmnsdkXUoJuJWoM4DM-82" target="e-ZmnsdkXUoJuJWoM4DM-85">
          <mxGeometry width="50" height="50" relative="1" as="geometry">
            <mxPoint x="120" y="426" as="sourcePoint" />
            <mxPoint x="60" y="395.62" as="targetPoint" />
          </mxGeometry>
        </mxCell>
        <mxCell id="e-ZmnsdkXUoJuJWoM4DM-89" value="" style="endArrow=classic;html=1;rounded=0;exitX=1;exitY=0.5;exitDx=0;exitDy=0;entryX=1;entryY=0.5;entryDx=0;entryDy=0;strokeWidth=4;fillColor=#dae8fc;strokeColor=#6c8ebf;" edge="1" parent="1" source="e-ZmnsdkXUoJuJWoM4DM-86" target="e-ZmnsdkXUoJuJWoM4DM-82">
          <mxGeometry width="50" height="50" relative="1" as="geometry">
            <mxPoint x="430" y="550.62" as="sourcePoint" />
            <mxPoint x="730" y="395.625" as="targetPoint" />
          </mxGeometry>
        </mxCell>
        <mxCell id="e-ZmnsdkXUoJuJWoM4DM-90" value="" style="endArrow=classic;html=1;rounded=0;exitX=1;exitY=0.5;exitDx=0;exitDy=0;entryX=1;entryY=0.5;entryDx=0;entryDy=0;strokeWidth=4;fillColor=#d5e8d4;strokeColor=#82b366;" edge="1" parent="1" source="e-ZmnsdkXUoJuJWoM4DM-87" target="e-ZmnsdkXUoJuJWoM4DM-82">
          <mxGeometry width="50" height="50" relative="1" as="geometry">
            <mxPoint x="480" y="450" as="sourcePoint" />
            <mxPoint x="530" y="400" as="targetPoint" />
          </mxGeometry>
        </mxCell>
        <mxCell id="e-ZmnsdkXUoJuJWoM4DM-91" value="&lt;font style=&quot;font-size: 18px;&quot;&gt;输入&lt;/font&gt;" style="text;html=1;align=center;verticalAlign=middle;resizable=0;points=[];autosize=1;strokeColor=none;fillColor=none;" vertex="1" parent="1">
          <mxGeometry x="40" y="395" width="60" height="40" as="geometry" />
        </mxCell>
        <mxCell id="e-ZmnsdkXUoJuJWoM4DM-92" value="&lt;font style=&quot;font-size: 18px;&quot;&gt;输出&lt;/font&gt;" style="text;html=1;align=center;verticalAlign=middle;resizable=0;points=[];autosize=1;strokeColor=none;fillColor=none;" vertex="1" parent="1">
          <mxGeometry x="730" y="395" width="60" height="40" as="geometry" />
        </mxCell>
      </root>
    </mxGraphModel>
  </diagram>
</mxfile>
